<svg clip-rule="evenodd" fill-rule="evenodd" stroke-linejoin="round" stroke-miterlimit="2" viewBox="0 0 16 16" xmlns="http://www.w3.org/2000/svg"><path d="m2.253 11.384 12.007 3.752 2.515-.01v-1.134l-14.522-4.538z" fill="#3f607f" fill-rule="nonzero" transform="matrix(.984427 0 0 .984427 1.24626 1.75523)"/><path d="m2.253 10.704 14.522 4.538v-4.355l-8.126-2.048z" fill="#5fb2ff" fill-rule="nonzero" transform="matrix(.984427 0 0 .984427 1.24626 .524697)"/><path d="m37.544 30.894-11.739-.204.098 8.382h11.641z" fill="#c36365" transform="matrix(.427756 -.132184 0 .716669 -5.29571 -13.0626)"/><path d="m33.748 33.154-7.845-2.26.3 5.721 7.82 2.602z" fill="#fc7f7f" transform="matrix(.61188 -.189081 .0909247 .0280973 -13.6197 9.44638)"/><path d="m33.607 30.734-7.704.16v8.178h8.162z" fill="#be5559" transform="matrix(.0913364 .0282245 0 .717409 2.67325 -17.477)"/><path d="m29.061 36.743-7.752 2.395s.957-1.171.789-1.388c-.628-.812-1.22-2.489-1.22-4.107 0-5.788 3.664-9.333 6.208-10.118.129-.04.244-.059.344-.055.056.002.107.011.153.028l.398.072-.155.365c-.002.159-.055.339-.154.521-.193.37-.387.76-.558 1.164-.336.79-.589 1.632-.596 2.477 0 .164.008.315.042.472-.04.128.027.122 0 0 .265-.836.762-1.496 1.204-1.632.043-.014.083-.017.12-.011.002.001.443.086.443.086l.34 3.66c.126.493.222 1.085.222 1.879 0 .108-.006.215-.018.323l.018.189-.104.286c-.07.277-.172.552-.298.822l-.377 1.041c-.087.499.12.913.525 1.159zm-4.388-10.862c-.758.695-1.397 1.546-1.894 2.503-.767 1.479-1.194 3.21-1.194 5.008 0 1.212.238 2.187.663 2.869-.355-.696-.427-1.464-.219-2.303-.463-1.858-.088-3.716.75-5.574.502-.742 1.17-1.655 1.894-2.503zm2.613 2.511c-.166.273-.302.603-.408.998z" fill="#05d33c" transform="matrix(.277767 0 0 .277767 1.2468 .217361)"/><path d="m31.54-10.816c.244-4.755.7-7.943 1.107-7.943.181 0 .305 1.222.305 3.055 0 1.06-.031 3.545-.031 5.337 0 9.126.76 14.464.76 29.171v.306c-.002 2.034.025 3.986-.067 5.839-.425 8.604-.355 16.466 1.096 19.238h-8.06s.591-3.154.678-4.752c.088-1.627-.016-3.02-.148-5.01-.553-6.211-.864-14.538-.864-24.34 0-36.463 3.369-51.659 5.708-51.659.415 0 .68 1.344.68 3.952 0 1.018-.048 2.077-.141 3.055-.526 5.785-1.052 12.671-1.061 20.697 0 1.032.007 1.999.038 3.054-.037.727.025.82 0 0zm.404-25.28c-3.023 1.644-4.978 20.7-4.978 45.978 0 10.672.427 19.337 1.156 24.758.534 3.974 1.231 6.205 2.04 6.205.876 0 1.606-2.266 2.114-6.205.497-3.859.782-9.323.782-15.836 0-13.363-.782-17.886-.782-28.478 0-.523.003-1.027.01-1.513-.273 2.122-.466 5.428-.585 10.109-.018.856-.071 1.263-.137 1.263-.358 0-.615-8.189-.615-13.363 0-8.671.375-16.924.995-22.918zm-2.022 69.869c-1.281 0-1.905-7.881-1.905-16.798 0-8.782.942-27.257 2.12-31.896.048-.135.081.09.075.495-.091 7.386-.616 19.525 0 26.132.135-2.613.296-4.864.544-6.711.037-.27.07-.135.08.271.086 5.089.759 7.926.759 15.852 0 7.566-.667 12.655-1.673 12.655z" fill="#7ffca2" transform="matrix(.302086 -.0933498 0 .044091 -.784056 11.597)"/></svg>