<?xml version="1.0" encoding="UTF-8" standalone="no"?>
<!DOCTYPE svg PUBLIC "-//W3C//DTD SVG 1.1//EN" "http://www.w3.org/Graphics/SVG/1.1/DTD/svg11.dtd">
<svg width="100%" height="100%" viewBox="0 0 16 16" version="1.1" xmlns="http://www.w3.org/2000/svg" xmlns:xlink="http://www.w3.org/1999/xlink" xml:space="preserve" xmlns:serif="http://www.serif.com/" style="fill-rule:evenodd;clip-rule:evenodd;stroke-linejoin:round;stroke-miterlimit:2;">
    <path d="M5.496,8.473L6.938,7.511C6.935,7.482 6.921,7.457 6.921,7.428L6.921,6.992L5.718,7.392C5.645,7.417 5.569,7.429 5.492,7.429C5.185,7.429 4.911,7.231 4.815,6.94L4.1,4.797C4.076,4.725 4.064,4.649 4.064,4.572C4.064,4.18 4.386,3.858 4.778,3.858C5.085,3.858 5.359,4.055 5.456,4.347L5.945,5.812L7.41,5.323C7.482,5.296 7.558,5.281 7.635,5.279L7.635,4.572L6.921,4.572C6.529,4.572 6.207,4.249 6.207,3.857L6.207,1.714C6.207,1.322 6.529,1 6.921,1L9.778,1C10.17,1 10.493,1.322 10.493,1.714L10.493,3.857C10.493,4.249 10.17,4.572 9.778,4.572L9.064,4.572L9.064,5.286L11.207,5.286C11.477,5.286 11.725,5.439 11.846,5.681L12.561,7.11C12.61,7.209 12.636,7.318 12.636,7.429C12.636,7.821 12.313,8.144 11.921,8.144C11.651,8.144 11.403,7.991 11.282,7.749L10.766,6.715L9.778,6.715L9.851,12.456C9.851,12.538 9.836,12.619 9.808,12.696C9.674,13.065 9.261,13.257 8.893,13.123C8.599,13.016 8.408,12.728 8.424,12.416L8.372,8.373L8.072,8.373L6.284,9.666L7.143,10.95C7.313,11.205 7.302,11.543 7.114,11.785C6.874,12.095 6.421,12.152 6.111,11.912C6.051,11.865 5.998,11.809 5.956,11.745L4.7,9.867C4.529,9.612 4.541,9.275 4.729,9.032C4.776,8.972 4.833,8.919 4.896,8.876L5.496,8.474L5.496,8.473ZM6.921,2.429L6.921,3.857L7.635,3.857L7.635,2.429L6.921,2.429Z" style="fill:rgb(252,127,127);"/>
    <g transform="matrix(-0.575317,-0.575317,0.575317,-0.575317,7.9437,22.5106)">
        <path d="M13,0L10,4L11.947,4C11.809,5.32 11.389,5.907 10.863,6.275C10.219,6.726 9.15,6.881 7.9,7.005C6.65,7.129 5.219,7.226 3.988,8.088C3.096,8.713 2.456,9.74 2.17,11.184C1.459,11.509 1,12.222 1,13.004C1,14.101 1.903,15.004 3,15.004C4.097,15.004 5,14.101 5,13.004C5,12.353 4.683,11.741 4.15,11.367C4.343,10.482 4.703,10.03 5.137,9.727C5.781,9.276 6.85,9.121 8.1,8.997C9.35,8.873 10.781,8.776 12.012,7.914C13.065,7.177 13.767,5.882 13.949,4L16,4L13,-0Z" style="fill:rgb(252,127,127);fill-rule:nonzero;"/>
    </g>
</svg>
