<svg clip-rule="evenodd" fill-rule="evenodd" stroke-linejoin="round" stroke-miterlimit="2" viewBox="0 0 64 64" xmlns="http://www.w3.org/2000/svg"><g fill-rule="nonzero"><path d="m0 10.68 8 2.5 8-2.5v-1.93l-16-3.75z" fill="#3f607f" transform="matrix(3.93771 0 0 3.93771 -2.05581 4.43815)"/><path d="m0 10 8 2.5 8-2.5-16-5z" fill="#5fb2ff" transform="matrix(3.93771 0 0 3.93771 -2.05581 -.483988)"/><path d="m1 4h14v8h-14z" fill="#c36365" transform="matrix(1.12506 0 0 1.81644 .756839 10.5516)"/></g><ellipse cx="9.757319" cy="18.04234" fill="#fc7f7f" rx="7.87542" ry="3.37518" stroke-width="1.12506"/><ellipse cx="9.757319" cy="31.76812" fill="#c36365" rx="7.87542" ry="3.37518" stroke-width="1.12506"/><path d="m7.495 6.948-.201.028c-.011.002-.023.003-.034.003l.235-.033zm-1.48-3.15.526-.073c.047-.007.097-.004.15.012.135.042.26.161.346.319v.041c0 .189.064.378.164.523l.238 1.033-.571.08-.313-1.362c-.062-.271-.238-.496-.435-.557-.036-.011-.071-.016-.105-.016zm1.342-2.04.561-.075c.047-.008.097-.004.149.012l1.834.567c.252.077.459.42.459.758v1.851.012c-.002.121-.03.225-.078.306-.074.022-.371.114-.445.137l-.291.09c.144-.06.242-.235.242-.468v-1.851c0-.338-.207-.681-.458-.758l-1.835-.567c-.048-.015-.094-.019-.138-.014zm2.086 3.681v.382l1.375.425c.174.054.333.235.411.468l.458 1.375c.032.096.049.196.049.291 0 .099-.018.187-.049.26l-.031.054-.704.218c.127-.071.213-.237.213-.455 0-.095-.017-.195-.049-.291l-.459-1.375c-.077-.233-.236-.414-.41-.468l-1.376-.425v-.617l.459.142c.039.012.076.017.113.016zm.458 2.011v.363c-.001.207-.083.375-.215.443l.447 1.34-.571.079-.447-1.342c.132-.068.213-.236.215-.443v-.617zm.707 2.082.524-.073c.05-.008.102-.004.155.012.251.078.458.42.458.759 0 .269-.131.469-.323.489l-1.376.192c-.013.001-.026.002-.039.003l.844-.118c.191-.02.323-.22.323-.489 0-.339-.207-.681-.459-.759-.036-.011-.072-.017-.107-.016zm-2.302-.863-1.819 1.069c-.038.022-.08.036-.123.04l-.53.07c.028-.007.056-.018.081-.033l2.319-1.362zm-.439-3.072.087-.013v.024c-.03-.007-.059-.011-.087-.011zm-.372-2.591.459.141v1.234l-.459-.142z" fill="#fc7f7f" transform="scale(4)"/><path d="m6.492 1c-.549 0-1 .451-1 1v3c0 .549.451 1 1 1h1v.99c-.108.003-.215.024-.316.062l-2.051.684-.684-2.051c-.136-.408-.519-.685-.949-.685-.549 0-1 .452-1 1.001 0 .107.017.213.051.315l1 3c.136.408.519.684.949.684.107 0 .214-.017.316-.051l1.684-.56v.61c0 .041.019.076.024.116l-4.579 3.052c-.278.185-.445.498-.445.832 0 .549.451 1 1 1 .198 0 .391-.058.555-.168l5.056-3.37 1.495 2.986c.221.443.74.658 1.21.502l3-1c.418-.129.705-.518.705-.956 0-.548-.451-1-1-1-.115 0-.229.02-.337.059l-2.178.725-.975-1.951c.288-.176.466-.489.469-.827v-.999h1.383l.722 1.448c.169.338.517.553.895.553.549 0 1.001-.452 1.001-1 0-.156-.037-.309-.106-.448l-1-2c-.169-.339-.517-.553-.895-.553h-3v-1h1c.549 0 1-.451 1-1v-3c0-.549-.451-1-1-1zm0 2h1v2h-1z" fill="#c36365" fill-rule="nonzero" transform="matrix(1.83444 .566873 0 2.46732 18.0722 .940045)"/></svg>