<?xml version="1.0" encoding="UTF-8" standalone="no"?>
<!DOCTYPE svg PUBLIC "-//W3C//DTD SVG 1.1//EN" "http://www.w3.org/Graphics/SVG/1.1/DTD/svg11.dtd">
<svg width="100%" height="100%" viewBox="0 0 16 16" version="1.1" xmlns="http://www.w3.org/2000/svg" xmlns:xlink="http://www.w3.org/1999/xlink" xml:space="preserve" xmlns:serif="http://www.serif.com/" style="fill-rule:evenodd;clip-rule:evenodd;stroke-linejoin:round;stroke-miterlimit:2;">
    <path d="M12,9C11.451,9 11,9.451 11,10L11,11L13,11L13,13L14,13C14.549,13 15,12.549 15,12L15,10C15,9.451 14.549,9 14,9L12,9ZM13,13L11,13L11,11L10,11C9.451,11 9,11.451 9,12L9,14C9,14.549 9.451,15 10,15L12,15C12.549,15 13,14.549 13,14L13,13Z" style="fill:rgb(95,178,255);fill-rule:nonzero;"/>
    <path id="Round-fill" serif:id="Round fill" d="M8.733,15.543C8.663,15.621 8.58,15.689 8.487,15.742C8.176,15.921 7.794,15.919 7.484,15.738L1.495,12.238C1.189,12.059 1,11.73 1,11.375L1,4.625C1,4.275 1.184,3.944 1.496,3.761L1.503,3.757L7.496,0.261C7.809,0.079 8.194,0.08 8.506,0.263L11.381,1.95C11.577,2.031 11.749,2.174 11.864,2.371C11.874,2.388 11.883,2.406 11.892,2.423C11.967,2.565 12.009,2.725 12.009,2.892C12.009,2.892 12.009,5.553 12.009,5.553L14.413,6.964C14.596,7.047 14.755,7.185 14.864,7.371C14.983,7.575 15.021,7.805 14.989,8.022L14.989,8.265C14.697,8.096 14.359,8 14,8L12,8C11.926,8 11.852,8.004 11.78,8.012L12.015,7.875L11.003,7.281L6.984,9.625L7.996,10.22L10.385,8.826C10.143,9.157 10,9.563 10,10C8.903,10 8,10.903 8,12L8,14C8,14.618 8.287,15.175 8.733,15.543ZM7.998,2.284L3.98,4.628L4.992,5.222L9.01,2.878L7.998,2.284ZM4.009,9.495L4.009,6.964C4.009,6.964 3,6.372 3,6.372L3,10.801L6.989,13.132C6.989,13.132 6.989,11.947 6.989,11.947L4.576,10.53C4.398,10.447 4.243,10.311 4.136,10.129C4.02,9.93 3.981,9.707 4.009,9.495ZM10.009,5.832L10.009,4.611L6.009,6.944L6.009,8.166L10.009,5.832Z" style="fill:rgb(252,127,127);"/>
</svg>
